<?xml version="1.0" encoding="utf-8"?>
<svg width="128" height="128" viewBox="0 0 128 128" fill="none" xmlns="http://www.w3.org/2000/svg">
  <defs>
    <filter color-interpolation-filters="sRGB" x="-8.779" y="-89.621" width="10.779" height="91.621" id="filter_1">
      <feFlood flood-opacity="0" result="BackgroundImageFix_1" />
      <feColorMatrix type="matrix" values="0 0 0 0 0 0 0 0 0 0 0 0 0 0 0 0 0 0 1 0" in="SourceAlpha" />
      <feOffset dx="0" dy="4" />
      <feGaussianBlur stdDeviation="2" />
      <feColorMatrix type="matrix" values="0 0 0 0 0 0 0 0 0 0 0 0 0 0 0 0 0 0 0.251 0" />
      <feBlend mode="normal" in2="BackgroundImageFix_1" result="Shadow_2" />
      <feBlend mode="normal" in="SourceGraphic" in2="Shadow_2" result="Shape_3" />
    </filter>
  </defs>
  <g>
    <g transform="translate(0 13.026)">
      <path d="M0 91.6214L0.778976 91.6214C6.30257 91.6214 10.779 87.145 10.779 81.6214L10.779 10C10.779 4.4764 6.30257 0 0.778976 0L0 0L0 91.6214Z" fill="#FFFFFF" fill-rule="evenodd" transform="translate(117.221 4.042)" />
      <path d="M10.7789 0L10 0C4.4764 0 0 4.4764 0 10L0 81.6214C0 87.145 4.4764 91.6214 10 91.6214L10.7789 91.6214L10.7789 0Z" fill="#FFFFFF" fill-rule="evenodd" filter="url(#filter_1)" transform="translate(0 4.042)" />
      <g transform="translate(13.234 0)">
        <path d="M91.0526 0L10 0C4.4764 0 0 4.4764 0 10L0 91.0529C0 96.5765 4.4764 101.053 10 101.053L91.0526 101.053C96.5762 101.053 101.053 96.5765 101.053 91.0529L101.053 10C101.053 4.4764 96.5762 0 91.0526 0ZM71.2879 35.4977L40.0536 45.599L40.0535 71.1865C40.0535 76.519 34.7067 80.8421 28.111 80.8421C21.5153 80.8421 16.1684 76.519 16.1684 71.1865C16.1684 65.854 21.5153 61.5309 28.111 61.5309C30.4786 61.5309 32.6854 62.0881 34.5416 63.0488L34.5416 39.4229C34.5415 37.6051 34.5415 36.065 34.7116 34.7986C34.8926 33.4511 35.2863 32.21 36.2343 31.0584C37.1823 29.9067 38.4463 29.1339 39.9137 28.4787C41.2931 27.8628 43.0504 27.2682 45.1244 26.5664L52.8195 23.9625C57.2443 22.465 60.8529 21.2439 63.7635 20.6442C66.7732 20.0241 69.6946 19.9241 72.2934 21.3225L72.3237 21.3389C72.4749 21.4211 72.6211 21.5061 72.7619 21.5938C73.5124 22.0615 74.1147 22.6055 74.6004 23.2093C75.5712 24.4167 76.0741 25.8626 76.3587 27.4126C76.4133 27.71 76.4628 28.0288 76.5046 28.3495C76.8 30.6182 76.8 33.4657 76.8 36.861L76.8 65.2446C76.8 70.5771 71.4529 74.9002 64.8572 74.9002C58.2615 74.9002 52.9148 70.5771 52.9148 65.2446C52.9148 59.9121 58.2615 55.589 64.8572 55.589C67.2249 55.589 69.4319 56.1462 71.2879 57.1069L71.2879 35.4977Z" fill="#FFFFFF" fill-rule="evenodd" />
      </g>
    </g>
  </g>
</svg>