<?xml version="1.0" encoding="utf-8"?>
<svg width="128" height="128" viewBox="0 0 128 128" fill="none" xmlns="http://www.w3.org/2000/svg">
  <defs>
    <filter color-interpolation-filters="sRGB" x="-85.579" y="-89.621" width="87.579" height="91.621" id="filter_1">
      <feFlood flood-opacity="0" result="BackgroundImageFix_1" />
      <feColorMatrix type="matrix" values="0 0 0 0 0 0 0 0 0 0 0 0 0 0 0 0 0 0 1 0" in="SourceAlpha" />
      <feOffset dx="0" dy="4" />
      <feGaussianBlur stdDeviation="2" />
      <feColorMatrix type="matrix" values="0 0 0 0 0 0 0 0 0 0 0 0 0 0 0 0 0 0 0.251 0" />
      <feBlend mode="normal" in2="BackgroundImageFix_1" result="Shadow_2" />
      <feBlend mode="normal" in="SourceGraphic" in2="Shadow_2" result="Shape_3" />
    </filter>
    <filter color-interpolation-filters="sRGB" x="-85.579" y="-89.621" width="87.579" height="91.621" id="filter_2">
      <feFlood flood-opacity="0" result="BackgroundImageFix_1" />
      <feColorMatrix type="matrix" values="0 0 0 0 0 0 0 0 0 0 0 0 0 0 0 0 0 0 1 0" in="SourceAlpha" />
      <feOffset dx="0" dy="4" />
      <feGaussianBlur stdDeviation="2" />
      <feColorMatrix type="matrix" values="0 0 0 0 0 0 0 0 0 0 0 0 0 0 0 0 0 0 0.251 0" />
      <feBlend mode="normal" in2="BackgroundImageFix_1" result="Shadow_2" />
      <feBlend mode="normal" in="SourceGraphic" in2="Shadow_2" result="Shape_3" />
    </filter>
    <filter color-interpolation-filters="sRGB" x="-99.053" y="-99.053" width="101.053" height="101.053" id="filter_3">
      <feFlood flood-opacity="0" result="BackgroundImageFix_1" />
      <feColorMatrix type="matrix" values="0 0 0 0 0 0 0 0 0 0 0 0 0 0 0 0 0 0 1 0" in="SourceAlpha" />
      <feOffset dx="0" dy="4" />
      <feGaussianBlur stdDeviation="2" />
      <feColorMatrix type="matrix" values="0 0 0 0 0 0 0 0 0 0 0 0 0 0 0 0 0 0 0.251 0" />
      <feBlend mode="normal" in2="BackgroundImageFix_1" result="Shadow_2" />
      <feBlend mode="normal" in="SourceGraphic" in2="Shadow_2" result="Shape_3" />
    </filter>
  </defs>
  <g>
    <g transform="translate(0 13.474)">
      <path d="M10 0L77.5789 0C83.1025 0 87.5789 4.4764 87.5789 10L87.5789 81.6211C87.5789 87.1447 83.1025 91.6211 77.5789 91.6211L10 91.6211C4.4764 91.6211 0 87.1447 0 81.6211L0 10C0 4.4764 4.4764 0 10 0L10 0Z" fill="#26A068" filter="url(#filter_1)" transform="matrix(1 0 0 1 40.421 4.042)" />
      <path d="M10 0L77.5789 0C83.1025 0 87.5789 4.4764 87.5789 10L87.5789 81.6211C87.5789 87.1447 83.1025 91.6211 77.5789 91.6211L10 91.6211C4.4764 91.6211 0 87.1447 0 81.6211L0 10C0 4.4764 4.4764 0 10 0L10 0Z" fill="#C01C28" filter="url(#filter_2)" transform="matrix(1 0 0 1 0 4.042)" />
      <g transform="matrix(1 0 0 1 13.234 0)">
        <path d="M10 0L91.0526 0C96.5762 0 101.053 4.4764 101.053 10L101.053 91.0527C101.053 96.5763 96.5762 101.053 91.0526 101.053L10 101.053C4.4764 101.053 0 96.5763 0 91.0527L0 10C0 4.4764 4.4764 0 10 0L10 0Z" fill="#FFFFFF" filter="url(#filter_3)" transform="scale(1 1)" />
        <path d="M23.8852 25.3885C23.8852 25.3885 55.1195 15.2871 55.1195 15.2871C55.1195 15.2871 55.1195 36.8964 55.1195 36.8964C53.2635 35.9357 51.0565 35.3785 48.6888 35.3785C42.0931 35.3785 36.7464 39.7016 36.7464 45.0341C36.7464 50.3667 42.0931 54.6897 48.6888 54.6897C55.2845 54.6897 60.6316 50.3667 60.6316 45.0341C60.6316 45.0341 60.6316 45.0344 60.6316 45.0341C60.6316 45.0341 60.6316 16.6505 60.6316 16.6505C60.6316 13.2552 60.6316 10.4077 60.3362 8.13894C60.2944 7.81829 60.2449 7.49952 60.1903 7.20209C59.9057 5.65211 59.4028 4.20616 58.432 2.99875C57.9463 2.39501 57.344 1.85093 56.5935 1.38325C56.4527 1.29558 56.3065 1.21057 56.1553 1.12835C56.1553 1.12835 56.125 1.11195 56.125 1.11195C53.5262 -0.286394 50.6048 -0.186382 47.5951 0.433666C44.6845 1.03334 41.0759 2.25452 36.6511 3.75197C36.6511 3.75197 28.956 6.35589 28.956 6.35589C26.882 7.0577 25.1247 7.65228 23.7453 8.26815C22.2779 8.92339 21.0139 9.6962 20.0659 10.8478C19.1179 11.9995 18.7242 13.2406 18.5432 14.588C18.3731 15.8545 18.3731 17.3946 18.3732 19.2124C18.3732 19.2124 18.3732 42.8383 18.3732 42.8383C16.5169 41.8776 14.3102 41.3204 11.9426 41.3204C5.34686 41.3204 0 45.6435 0 50.976C0 56.3085 5.34686 60.6316 11.9426 60.6316C18.5383 60.6316 23.8851 56.3085 23.8851 50.976C23.8851 50.976 23.8851 50.9763 23.8851 50.976C23.8851 50.976 23.8852 25.3885 23.8852 25.3885Z" fill="#204AD6" transform="matrix(1 0 0 1 16.168 20.211)" />
      </g>
    </g>
  </g>
</svg>