<?xml version="1.0" encoding="utf-8"?>
<svg width="128" height="128" viewBox="0 0 128 128" fill="none" xmlns="http://www.w3.org/2000/svg">
  <defs>
    <linearGradient id="gradient_1" gradientUnits="userSpaceOnUse" x1="0" y1="0" x2="0" y2="100">
      <stop offset="0" stop-color="#FFFFFF" stop-opacity="0.18" />
      <stop offset="1" stop-color="#FFFFFF" stop-opacity="0" />
    </linearGradient>
  </defs>
  <g>
    <path d="M2.66509 39.2694L0.234014 25.4821C-0.437309 21.6748 0.335751 18.1878 2.55319 15.021C4.77064 11.8541 7.78299 9.93504 11.5902 9.26372L62.8003 0.234015C66.6075 -0.437308 70.0946 0.335751 73.2614 2.55319C76.4282 4.77064 78.3473 7.78299 79.0186 11.5902L90.1321 74.618C90.8034 78.4252 90.0304 81.9122 87.8129 85.0791C85.5955 88.2459 82.5831 90.165 78.7759 90.8363L27.5659 99.866C23.7586 100.537 20.2716 99.7643 17.1047 97.5469C13.9379 95.3294 12.0188 92.3171 11.3475 88.5098L2.66509 39.2694Z" fill="#C01C28" fill-rule="evenodd" transform="translate(2.817 13.95)" />
    <path d="M8.91642 25.3776L11.3475 11.5902C12.0188 7.78299 13.9379 4.77064 17.1047 2.55319C20.2716 0.335752 23.7586 -0.437308 27.5659 0.234014L78.7759 9.26372C82.5831 9.93504 85.5955 11.8541 87.8129 15.021C90.0304 18.1878 90.8034 21.6748 90.1321 25.4821L79.0186 88.5098C78.3473 92.3171 76.4282 95.3294 73.2614 97.5469C70.0946 99.7643 66.6075 100.537 62.8003 99.866L11.5902 90.8363C7.78299 90.165 4.77063 88.2459 2.55319 85.0791C0.335751 81.9123 -0.437309 78.4252 0.234013 74.618L8.91642 25.3776Z" fill="#26A269" fill-rule="evenodd" transform="translate(34.817 13.95)" />
    <g transform="translate(20 12)">
      <path d="M0 32L0 16C0 11.5817 1.5621 7.81049 4.68629 4.68629C7.81049 1.5621 11.5817 0 16 0L72 0C76.4183 0 80.1895 1.5621 83.3137 4.68629C86.4379 7.81049 88 11.5817 88 16L88 84C88 88.4183 86.4379 92.1895 83.3137 95.3137C80.1895 98.4379 76.4183 100 72 100L16 100C11.5817 100 7.81049 98.4379 4.68629 95.3137C1.5621 92.1895 0 88.4183 0 84L0 32Z" fill="#FFFFFF" fill-rule="evenodd" />
      <path d="M0 32L0 16C0 11.5817 1.5621 7.81049 4.68629 4.68629C7.81049 1.5621 11.5817 0 16 0L72 0C76.4183 0 80.1895 1.5621 83.3137 4.68629C86.4379 7.81049 88 11.5817 88 16L88 84C88 88.4183 86.4379 92.1895 83.3137 95.3137C80.1895 98.4379 76.4183 100 72 100L16 100C11.5817 100 7.81049 98.4379 4.68629 95.3137C1.5621 92.1895 0 88.4183 0 84L0 32Z" fill="url(#gradient_1)" fill-rule="evenodd" />
    </g>
    <path d="M17.7273 18.843C17.7273 18.843 40.909 11.3459 40.909 11.3459C40.909 11.3459 40.909 27.3841 40.909 27.3841C39.5315 26.6711 37.8935 26.2575 36.1362 26.2575C31.241 26.2575 27.2728 29.466 27.2728 33.4237C27.2728 37.3815 31.241 40.59 36.1362 40.59C41.0315 40.59 45 37.3815 45 33.4237C45 33.4237 45 33.424 45 33.4237C45 33.4237 45 12.3578 45 12.3578C45 9.83785 45 7.72448 44.7807 6.04062C44.7498 5.80264 44.713 5.56605 44.6725 5.3453C44.4613 4.19492 44.088 3.12176 43.3675 2.22563C43.007 1.77754 42.56 1.37374 42.003 1.02663C41.8985 0.961559 41.79 0.89847 41.6777 0.83745C41.6777 0.83745 41.6553 0.825277 41.6553 0.825277C39.7265 -0.212557 37.5583 -0.13833 35.3245 0.321861C33.1642 0.766935 30.486 1.67328 27.202 2.78467C27.202 2.78467 21.4908 4.71726 21.4908 4.71726C19.9515 5.23814 18.6473 5.67943 17.6235 6.13651C16.5344 6.62283 15.5962 7.1964 14.8927 8.05113C14.1891 8.90588 13.8969 9.82701 13.7625 10.8271C13.6362 11.767 13.6363 12.91 13.6364 14.2592C13.6364 14.2592 13.6364 31.7941 13.6364 31.7941C12.2587 31.081 10.6209 30.6675 8.86362 30.6675C3.96837 30.6675 0 33.876 0 37.8338C0 41.7915 3.96837 45 8.86362 45C13.7589 45 17.7272 41.7915 17.7272 37.8338C17.7272 37.8338 17.7272 37.834 17.7272 37.8338C17.7272 37.8338 17.7273 18.843 17.7273 18.843Z" fill="#204AD6" transform="translate(26 24)" />
    <path d="M8 1.7732C6.5 -0.226799 3.5 -0.726799 1.5 1.2732C-0.5 3.2732 -0.5 6.2732 1.5 8.2732C1.5 8.2732 8 15.2732 8 15.2732C8 15.2732 14.5 8.2732 14.5 8.2732C16.5 6.2732 16.5 3.2732 14.5 1.2732C12.5 -0.726799 9.5 -0.226799 8 1.7732Z" fill="#26A269" transform="translate(80 79.727)" />
  </g>
</svg>